
        <svg xmlns="http://www.w3.org/2000/svg" xmlns:xlink="http://www.w3.org/1999/xlink" version="1.1" width="3178.5714285714284" height="1678.5714285714287" viewBox="0 0 3178.5714285714284 1678.5714285714287">
			
			<g transform="scale(8.928571428571429) translate(10, 10)">
				<defs id="SvgjsDefs45124"><linearGradient id="SvgjsLinearGradient45133"><stop id="SvgjsStop45134" stop-color="#00ff8f" offset="0"/><stop id="SvgjsStop45135" stop-color="#00a1ff" offset="1"/></linearGradient></defs><g id="SvgjsG45125" featureKey="tOsHRK-0" transform="matrix(0.8804975571637454,0,0,0.8804975571637454,-4.024883736142615,42.299159880637205)" fill="#fff"><path xmlns="http://www.w3.org/2000/svg" d="M52.1732101,24.6461105c-11.2979431,0.0007286-20.4519291,9.157486-20.4519291,20.451931l-0.0013847,23.0057106  l43.4590988-43.4576416H52.1732101z"/><path xmlns="http://www.w3.org/2000/svg" d="M79.1626358,54.089077c-7.9887009-7.9873123-20.9384613-7.9873123-28.9243164-0.0021133L33.9706421,70.3538361  l61.4582138,0.0021133L79.1626358,54.089077z"/><path xmlns="http://www.w3.org/2000/svg" d="M17.2932701,56.6258087l11.4744453,11.4737167l0.0013828-43.3488083L17.2932701,36.2265434  C11.6606703,41.8606186,11.6620359,50.9939194,17.2932701,56.6258087z"/><path xmlns="http://www.w3.org/2000/svg" d="M4.571147,59.8163185c0,5.7429085,4.6551924,10.398098,10.3959284,10.3973656l11.6963844-0.0006561L4.5725307,48.1221008  L4.571147,59.8163185z"/></g><g id="SvgjsG45126" featureKey="textGroupContainer" transform="matrix(1,0,0,1,335,0)" fill="#fff"><rect xmlns="http://www.w3.org/2000/svg" y="0" height="1" width="1" opacity="0"/><rect xmlns="http://www.w3.org/2000/svg" y="0" x="-235" width="3" height="168"/></g><g id="SvgjsG45127" featureKey="nameFeature-0" transform="matrix(4.1101520885154015,0,0,4.1101520885154015,116.84915851274471,22.68228792780015)" fill="#fff"><path d="M0.5 19.82 l0 -0.1 c0.04 -0.04 -0.02 -0.38 0.42 -0.38 c0.34 0 0.4 0.02 0.58 0.02 c0.4 0 0.7 -0.02 0.76 -0.12 l0 -1.7 c0 -0.04 -0.02 -0.18 -0.02 -0.2 l-0.02 0.02 c-0.04 -0.04 0.04 0.18 0.04 -0.54 c0 -1.5 -0.02 -2.06 -0.02 -2.56 c0 -0.32 0 -0.94 0.04 -1.46 c0 -0.04 -0.08 -0.3 -0.08 -0.8 c0 -0.24 0.06 -0.24 0.06 -0.36 c0 -0.32 -0.02 -0.62 -0.02 -0.86 c0 -0.42 0.02 -0.74 0.02 -1.2 c0 -0.12 0.3 -0.1 0.36 -0.16 c0 0 0 -0.1 -0.18 -0.1 c0 0 -0.06 0 -0.12 0.08 c-0.02 0 -0.04 -0.02 -0.06 -0.08 l0 -3.38 c0 -0.26 -0.06 -0.42 -0.32 -0.42 c-0.38 0 -0.46 0.06 -1.14 0.06 c-0.54 0 -0.22 -0.08 -0.52 -0.26 c0 -0.48 1.5 -0.34 1.92 -0.4 l-0.06 0 c0 0.02 1.16 0.08 1.16 0.08 c0.04 0 0.08 0.02 0.12 0.02 c0.24 0 0.34 -0.1 0.52 -0.1 c0.08 0 0.16 0.02 0.26 0.02 c0.06 0 0.22 -0.02 0.32 -0.02 c0.24 0 0.96 0.02 1.18 0.02 c0.16 0 0.28 -0.06 0.6 -0.06 c0.1 0 1.84 0.04 2.06 0.04 c0.4 0 1.06 0.2 1.6 0.2 c0.76 0.08 0.3 0.18 1.06 0.36 c-0.02 0 -0.04 -0.02 -0.04 -0.02 c0 0.02 0.56 0.32 0.56 0.38 c0.24 0.06 0.6 0.56 0.78 0.72 l-0.02 -0.02 s0.54 0.76 0.54 1.44 c0 0.74 0 0.78 -0.16 1.28 c0 0.34 -0.46 0.94 -1.26 1.62 c-0.1 -0.04 -0.22 0.34 -0.58 0.34 c0.06 -0.2 -0.1 0.26 -0.66 0.3 c-0.02 -0.02 -0.04 -0.02 -0.04 -0.02 c-0.1 0 -0.24 0.18 -0.32 0.18 c-0.76 0.2 -1.1 0.12 -1.1 0.42 c0 0 -0.04 0.16 0.12 0.16 c0.22 -0.04 0.58 0.32 0.7 0.32 c0.42 0 0.5 0.38 0.84 0.38 c0.36 0.16 0.5 0.28 0.94 0.74 c0.44 1.3 0.78 0.6 0.78 1.58 c0 0.54 0.18 0.92 0.18 1.46 c0 0.08 -0.04 0.42 -0.04 1.12 c0.04 0.26 0.06 0.78 0.14 0.86 l0 -0.04 c0 0.02 -0.06 0.66 0.64 0.66 c0.48 0 0.7 -0.06 0.84 -0.06 c0 0 0.02 0.02 0.04 0.02 c0.04 0 0.14 -0.04 0.22 -0.04 s0.16 0.02 0.2 0.1 l-0.14 0 c0 0.1 0.06 0.1 0.06 0.14 c0.04 -0.02 0.06 -0.06 0.08 -0.06 l0.02 0 l0 0.26 c-0.06 0 -0.06 -0.06 -0.06 -0.14 c-0.04 0.02 -0.06 0.02 -0.16 0.06 c0 0.04 0.02 0.08 0.16 0.14 c-0.08 0.04 -0.1 0.14 -0.2 0.14 l0 -0.02 s-0.1 0.2 -0.7 0.2 c-0.22 0 -1.58 -0.08 -1.94 -0.1 c0 0.02 0 0.02 -0.02 0.02 c-0.16 0 -0.54 -0.4 -0.86 -0.4 l0.02 0 c0 -0.08 -0.9 -0.5 -0.92 -0.88 l0.02 0.02 c0 -0.02 -0.2 -0.2 -0.2 -0.26 c0 -0.04 0.02 -0.16 0.02 -0.28 c0 -0.06 -0.06 -0.06 -0.16 -0.1 c-0.14 -3.26 -0.44 -4.16 -0.74 -4.6 c-0.06 0.22 0.08 -0.24 -0.38 -0.46 c0 -0.14 -0.62 -0.36 -0.6 -0.44 c-0.04 0 -0.08 0.02 -0.1 0.02 c-0.42 0 -0.4 -0.4 -1.08 -0.4 l-1.08 0 c-0.22 0.46 -0.22 1.04 -0.22 1.32 c0 0.06 0 0.52 0.04 0.56 c0 0.02 -0.02 0.08 -0.06 0.28 c0 0.06 0.04 0.3 0.04 0.46 l0 -0.02 c0 0.12 -0.02 0.56 -0.02 0.7 c0 0.26 0.02 0.32 0.02 0.5 l0 2.32 c0 0.04 0.04 0.16 0.04 0.2 c0 0.06 -0.04 0.18 -0.04 0.26 c0 0.26 0.04 0.3 0.04 0.4 c-0.02 0.02 -0.04 0.02 -0.04 0.04 c0 0.06 0.28 0.1 0.82 0.1 c0.02 0 0.42 -0.04 0.44 -0.04 c0.56 0 0.56 0.04 0.68 0.2 c0 0.36 -0.08 0.42 -0.14 0.42 c-0.02 0 -0.04 -0.02 -0.08 -0.1 c-0.1 0 -0.12 0 -0.12 0.02 c0.16 0.18 -1.94 0.18 -2.16 0.18 l0.04 0 s-0.68 -0.02 -0.94 -0.08 c-0.8 0.08 -2.18 0 -2.74 0.2 c-0.24 0 -0.46 0 -0.46 -0.32 z M12.84 19.94 c-0.02 0 -0.04 0.02 -0.04 0.04 s0.02 0.04 0.04 0.04 c0 0 0.02 -0.02 0.02 -0.04 s-0.02 -0.04 -0.02 -0.04 z M13.38 19.76 c-0.14 0 -0.1 0.08 -0.16 0.18 c0 0 0.02 0.02 0.04 0.02 c0.06 0 0.12 -0.1 0.12 -0.2 z M1.54 19.88 c-0.04 0 -0.1 0 -0.14 0.02 c0.04 0 0.1 0 0.14 -0.02 z M1.58 19.88 l0 0.02 l0.04 0 z M2.3 19.9 l-0.02 -0.02 c-0.02 0 -0.02 0.02 -0.02 0.02 c0 0.02 0 0.04 0.02 0.04 c0 0 0.02 -0.02 0.02 -0.04 z M2.68 19.86 c-0.02 0.02 -0.04 0.02 -0.04 0.04 c0.02 0 0.06 0 0.08 -0.02 z M5.78 19.82 l0 0.06 l0.12 0 c-0.04 -0.04 -0.06 -0.06 -0.12 -0.06 z M6.56 19.86 c-0.02 0 -0.04 0.02 -0.04 0.02 s0.02 0.02 0.04 0.02 s0.02 -0.02 0.02 -0.02 s0 -0.02 -0.02 -0.02 z M13.46 19.7 c-0.02 0.06 0.08 0.16 0.08 0.18 c0.1 0 0.1 0 0.16 -0.02 c-0.06 -0.18 0 -0.22 -0.16 -0.3 c-0.06 0.04 -0.08 0.02 -0.08 0.14 z M5.5 19.82 l-0.04 0.04 l0.04 0 l0 -0.04 z M6.84 19.46 c0 0.18 0.12 0.18 0.12 0.32 l0.04 0 l0 -0.22 c-0.02 -0.04 -0.06 -0.08 -0.16 -0.1 z M0.84 19.5 l0 0.06 c0 -0.02 0.02 0.18 0.14 0.18 c0.02 0 0.06 -0.04 0.1 -0.08 c-0.02 0.02 -0.16 -0.16 -0.22 -0.16 l-0.02 0 z M1.18 19.7 c0 -0.02 -0.02 -0.02 -0.02 -0.02 c-0.02 0 -0.02 0 -0.02 0.02 c0 0 0 0.02 0.02 0.02 z M5.54 19.66 c-0.02 0 -0.02 0.02 -0.02 0.02 c0 0.02 0 0.02 0.02 0.02 s0.02 0 0.02 -0.02 c0 0 0 -0.02 -0.02 -0.02 z M6.16 19.6 l0 0.1 c0.04 -0.02 0.08 -0.04 0.1 -0.08 c-0.04 -0.02 -0.06 -0.02 -0.1 -0.02 z M0.84 19.36 c-0.02 0 -0.02 0.02 -0.02 0.04 s0 0.04 0.02 0.04 s0.02 -0.02 0.02 -0.04 s0 -0.04 -0.02 -0.04 z M10.06 18.84 c0.02 0.04 0.04 0.1 0.04 0.1 c0.02 0 0.02 0 0.02 -0.02 l0 -0.08 l-0.06 0 z M4.48 18.3 l0.08 0.04 c0.04 -0.02 0.04 -0.06 0.04 -0.1 c-0.06 0 -0.08 0.02 -0.12 0.06 z M9.22 17.5 c0.02 0 0.02 0.02 0.02 0.04 c0 0 0 0.02 -0.02 0.02 s-0.02 -0.02 -0.02 -0.02 c0 -0.02 0 -0.04 0.02 -0.04 z M9.46 17.48 c0.02 0.02 0.04 0.02 0.08 0.02 c-0.04 -0.02 -0.06 -0.02 -0.08 -0.02 z M2.52 15.4 c-0.02 0 -0.04 0.02 -0.04 0.04 s0.02 0.04 0.04 0.04 s0.02 -0.02 0.02 -0.04 s0 -0.04 -0.02 -0.04 z M2.36 14.88 c-0.02 0 -0.04 0.02 -0.04 0.04 s0.02 0.04 0.04 0.04 s0.02 -0.02 0.02 -0.04 s0 -0.04 -0.02 -0.04 z M9.04 12.48 c-0.02 0 -0.04 0.02 -0.04 0.02 c0 0.02 0.02 0.04 0.04 0.04 c0 0 0.02 -0.02 0.02 -0.04 z M4.26 12.14 l0 0.08 l0.02 0.02 c0.06 0 0.14 -0.08 0.14 -0.1 l-0.16 0 z M4.3 11.94 c0 0.02 -0.02 0.02 -0.02 0.02 c0 0.02 0.02 0.02 0.08 0.02 c0 0 0.02 0 0.06 -0.02 c-0.02 -0.06 0 -0.08 -0.06 -0.16 c-0.02 0 -0.08 0.12 -0.06 0.14 z M5.14 10.22 l0 1.02 c0 0.34 0.2 0.4 0.38 0.5 c3.18 -0.08 3.18 -0.52 3.48 -0.82 c-0.02 0 -0.02 -0.02 -0.02 -0.02 c0 -0.1 0.3 -0.3 0.3 -0.44 l-0.02 0 c0 -0.08 0.42 -0.74 0.42 -1.6 c0 -2.04 -0.56 -2.42 -0.64 -2.84 c0 -0.02 -0.6 -0.54 -1.3 -0.54 c-0.44 0 -0.54 0.04 -0.7 0.04 l-1.5 0 c-0.42 0 -0.26 0.2 -0.38 0.42 l0 1.58 l0.04 0.1 c0 0.78 -0.08 1.5 -0.08 2.2 c0 0.04 0 0.1 0.06 0.16 c0 0.04 -0.04 0.1 -0.04 0.24 z M2.52 9.78 c-0.02 0 -0.04 0.02 -0.04 0.02 l0.04 0 l0.02 0 s0 -0.02 -0.02 -0.02 z M2.46 9.68 c-0.02 0 -0.02 0.02 -0.02 0.04 c0 0 0 0.02 0.02 0.02 l0.02 -0.02 c0 -0.02 -0.02 -0.04 -0.02 -0.04 z M2.52 9.58 c-0.02 0 -0.04 0.02 -0.04 0.04 c0 0 0.02 0.02 0.04 0.02 s0.02 -0.02 0.02 -0.02 c0 -0.02 0 -0.04 -0.02 -0.04 z M2.36 8.42 l0 0.1 l0.04 0 c0 -0.04 0 -0.08 -0.04 -0.1 z M11.38 6.1 c0.02 0.04 0.08 0.04 0.1 0.04 l0 -0.12 c-0.06 0 -0.1 0 -0.1 0.08 z M9.86 5.42 c-0.02 0 -0.04 0.02 -0.04 0.04 s0.02 0.02 0.04 0.02 s0.02 0 0.02 -0.02 s0 -0.04 -0.02 -0.04 z M1.58 5.28 c0.04 0.02 0.08 0.02 0.12 0.02 l-0.08 -0.06 z M3.52 5.28 l0 -0.02 c-0.02 0 -0.02 0 -0.02 0.02 s0 0.02 0.02 0.02 l0 -0.02 z M8.2 5.24 l0.08 0.04 c0.1 0 0.1 -0.04 0.1 -0.14 c0 -0.02 -0.02 -0.02 -0.1 -0.02 c-0.04 0 -0.08 0 -0.08 0.12 z M6.16 5.12 c0 0.04 -0.02 0.12 0.04 0.12 c0.02 -0.02 0.04 -0.08 0.06 -0.12 l-0.1 0 z M8.96 5.2 c-0.02 0 -0.04 0.02 -0.04 0.02 c0 0.02 0.02 0.02 0.04 0.02 s0.02 0 0.02 -0.02 c0 0 0 -0.02 -0.02 -0.02 z M1.88 5.12 l0 0.04 c0 -0.02 0.06 0.04 0.1 -0.04 l-0.1 0 z M7.04 5.12 c-0.04 0 -0.06 0.02 -0.08 0.04 l0.08 0 l0 -0.04 z M0.5 5.12 l0.02 0 l0.48 0 l-0.5 0 z M16.5 17.68 c0 -0.16 -0.02 -0.98 -0.02 -1.14 c0 -0.02 0.02 -0.44 0.02 -0.64 c0 -0.4 -0.02 -2.3 -0.02 -2.42 c0 -0.24 0.02 -0.88 0.02 -1.02 c0 -0.26 0.02 -0.86 -0.18 -0.86 c-0.28 0 -0.3 0.02 -0.42 0.02 l-0.84 0 c-0.02 0 -0.04 0.02 -0.06 0.02 c-0.1 0 -0.14 -0.18 -0.2 -0.24 c0 -0.28 0.06 -0.42 0.42 -0.42 c0.28 0 0.64 0.02 1 0.02 l2.5 0 c0.08 0.02 0.2 0.1 0.24 0.2 l-0.04 4.2 l0.04 0.04 c0 0.76 -0.06 0.8 -0.06 1.08 c0 0.08 0.02 0.14 0.06 0.16 c0 0 0 0.1 -0.04 0.22 c0 2.2 0.34 2.46 1.32 2.46 c0.04 0 0.22 -0.04 0.26 -0.04 c0.28 -0.14 0.28 -0.12 0.34 -0.16 c0 0.02 0 0.02 0.02 0.02 c0.1 0 0.7 -0.32 0.96 -0.84 c-0.02 0 -0.02 0 -0.02 -0.02 c0 -0.2 0.46 -0.76 0.46 -1.26 c0.02 -0.02 0 -0.18 0.14 -0.6 l0 -1.84 c0 -0.7 -0.06 -1.36 -0.06 -1.82 c0 0 0 -0.08 0.02 -0.18 l0 -0.68 c0 -0.48 -0.54 -0.2 -0.54 -0.42 c-0.02 0.04 -0.04 0.1 -0.08 0.1 c-0.34 0 -0.3 -0.02 -0.44 -0.02 c-0.2 0 -0.24 0.04 -0.38 0.04 c-0.22 0 -0.4 -0.2 -0.4 -0.36 c0 -0.26 0.38 -0.3 0.66 -0.3 c0.48 0 0.62 -0.02 0.72 0.06 l1.98 0 c0.02 -0.02 0.06 -0.04 0.08 -0.04 c0.1 0 0.38 0.08 0.68 0.08 c0.12 0 0.2 0.04 0.2 0.76 c0 0.32 -0.06 4.5 -0.08 4.62 l0 -0.02 s0.04 2.2 0.04 2.36 l0 -0.02 c0 0 0.02 0.6 0.5 0.6 c0.16 0 0.38 -0.04 0.58 -0.04 c0.28 0 0.54 0.08 0.54 0.42 c0 0.14 -0.16 0.22 -0.32 0.22 c-0.3 0 -0.68 -0.06 -1 -0.06 c-0.06 0 -0.6 0 -0.74 0.06 l-1.24 0 c0 0.04 -0.08 0.08 -0.08 0.08 c-0.32 0 -0.6 -0.02 -0.6 -0.34 c0 -0.02 0 -0.04 0.02 -0.08 l0 -0.94 c-0.04 -0.06 -0.12 -0.22 -0.2 -0.22 c-0.04 0 -0.06 0.02 -0.08 0.06 c0 0.04 -0.46 0.72 -0.46 0.7 c-0.02 0.16 -0.62 0.52 -0.76 0.56 l0.02 0 c0 0.02 -0.74 0.12 -0.8 0.26 l-1.52 0 c-1.72 0 -2.16 -1.84 -2.16 -2.38 z M22.64 19.96 l-0.02 -0.04 z M22.6 19.86 c-0.02 0 -0.04 0.02 -0.04 0.04 s0.02 0.02 0.04 0.02 s0.02 0 0.02 -0.02 s0 -0.04 -0.02 -0.04 z M25.04 19.82 l0.04 -0.02 z M26.06 19.8 c-0.06 0 -0.02 0 -0.04 0.02 l0.08 0 z M25 19.76 c-0.02 0 -0.04 0.02 -0.04 0.04 c0 0 0.02 0.02 0.04 0.02 s0.02 -0.02 0.02 -0.02 c0 -0.02 0 -0.04 -0.02 -0.04 z M25.52 19.76 c-0.02 0 -0.02 0.02 -0.02 0.04 c0 0 0 0.02 0.02 0.02 l0.02 -0.02 c0 -0.02 -0.02 -0.04 -0.02 -0.04 z M20.98 19.56 l-0.06 0.08 l0.06 0 l0 -0.08 z M16.68 17.74 c-0.02 0 -0.04 0.02 -0.04 0.02 c0 0.02 0.02 0.04 0.04 0.04 l0 -0.06 z M16.68 17.54 c-0.02 0 -0.04 0.04 -0.04 0.08 s0.02 0.08 0.02 0.08 c0.02 0 0.02 -0.14 0.02 -0.16 z M16.76 17.08 c-0.02 0 -0.04 0.02 -0.04 0.04 s0.02 0.04 0.04 0.04 s0.02 -0.02 0.02 -0.04 s0 -0.04 -0.02 -0.04 z M16.84 17.04 c-0.02 0 -0.04 0 -0.04 0.02 c0 0 0.02 0.02 0.04 0.02 l0.02 -0.02 c0 -0.02 -0.02 -0.02 -0.02 -0.02 z M22.8 12.5 c0 0 0 0.04 0.02 0.04 l0 0 c0 -0.02 0 -0.04 -0.02 -0.04 z M22.5 12.04 c-0.02 0 -0.04 0.02 -0.04 0.04 c0 0 0.02 0.02 0.04 0.02 l0.02 -0.02 c0 -0.02 -0.02 -0.04 -0.02 -0.04 z M15.16 11.52 c0 0.06 0.04 0.04 0.08 0.04 l0 -0.08 c0 0.02 -0.02 -0.02 -0.08 0.04 z M21.2 11.48 c-0.02 0 -0.02 0.02 -0.02 0.04 s0 0.04 0.02 0.04 s0.02 -0.02 0.02 -0.04 s0 -0.04 -0.02 -0.04 z M15 11.44 l0 0.02 l0.04 0 z M24.52 11.36 c0 0.02 -0.02 0.02 -0.02 0.04 s0.02 0.02 0.06 0.04 l0 0.02 z M22.96 11.36 c-0.02 0 -0.04 0.02 -0.04 0.04 s0.02 0.04 0.04 0.04 c0 0 0.02 -0.02 0.02 -0.04 s-0.02 -0.04 -0.02 -0.04 z M16.38 11.28 c-0.02 0 -0.04 0.02 -0.04 0.04 s0.02 0.04 0.04 0.04 c0 0 0.02 -0.02 0.02 -0.04 s-0.02 -0.04 -0.02 -0.04 z M22.88 11.28 l0 0.04 l0.04 0 c0 -0.04 0 -0.04 -0.04 -0.04 z M20.84 11.2 c0 0.06 0.02 0.06 0.04 0.08 c0 0 0.04 0 0.08 -0.04 c0 0 0 -0.04 -0.04 -0.08 z M21.58 11.28 l-0.02 -0.04 z M15.16 11.2 l0.02 0.04 l0.04 0 z M21.9 11.24 l0 0.04 l0 -0.06 l0 0.02 z M27.42 20.08 c-0.22 0 -0.22 0.02 -0.36 0.02 c-0.04 0 -0.22 -0.16 -0.28 -0.22 c0 0 0.04 -0.3 0.04 -0.36 c0.72 -0.06 1.24 -0.08 1.8 -0.14 c0.06 0 0 -0.38 0.22 -0.38 l0 -0.32 c0.02 0.02 0.04 0.02 0.04 0.02 c0.12 0 0.1 -0.56 0.26 -0.6 c0 -0.04 0.08 -0.72 0.28 -0.88 l0.1 -0.38 s0.68 -2.32 0.94 -2.32 c0.02 0 0.06 0.02 0.08 0.02 c0.1 0 0.12 -0.04 0.12 -0.08 c0 -0.18 -0.16 -0.1 -0.16 -0.24 c0 -0.36 0.36 -1.04 0.4 -1.08 c0.02 -0.82 0.32 -0.62 0.32 -1.14 l0 0.02 c0.02 0 0.18 -0.5 0.26 -0.56 c0 0.04 0.02 0.04 0.02 0.04 s-0.02 0 -0.02 -0.02 c0 -0.12 0.4 -0.94 0.4 -1.16 c0.1 0 0.12 -0.02 0.12 -0.06 s-0.02 -0.08 -0.02 -0.14 c0 -0.12 0.04 -0.24 0.18 -0.4 l0 0.02 c0.04 0 0.02 -0.44 0.18 -0.44 l0.08 -0.38 l0.12 -0.1 l0 -0.32 l0.16 -0.12 l0 -0.34 s0.12 -0.04 0.12 -0.08 c-0.02 0 -0.04 -0.04 -0.04 -0.06 c0 -0.26 0.5 -1.02 0.5 -1.54 l0.1 -0.08 l0 -0.32 c0 0.02 0.02 0.02 0.02 0.02 c0.28 0 -0.1 -1.16 0.94 -1.16 c0.08 0 0.44 0.22 0.44 0.52 c0.08 0.08 -0.08 0.28 0.28 0.94 c0.02 0 0.5 1.3 0.5 1.64 c0.18 0 0.06 0.4 0.52 1.36 c0.12 0.54 0.34 0.52 0.34 0.76 l0 -0.02 s0.1 0.64 0.18 0.64 l-0.02 0 c0 0.08 0.48 0.6 0.48 1.22 c0.12 0.58 0.32 0.34 0.32 0.84 l-0.02 -0.02 c0 0.04 0.32 0.46 0.32 0.72 c-0.02 0 -0.04 0 -0.04 0.02 c0 0.08 0.22 0.36 0.22 0.46 c0 0.02 -0.02 0.02 -0.02 0.04 c0 0.04 0.2 0.2 0.2 0.56 c0.08 0.7 0.42 0.74 0.42 1.18 c-0.02 0.04 -0.04 0.06 -0.04 0.08 c0 0.1 0.32 0.1 0.32 0.56 c0 1.14 0.78 1.4 0.78 2.2 c0.08 0.64 0.46 0.86 0.52 0.9 l1.3 0 c0.08 0 0.2 0.06 0.26 0.1 l0 0.36 c-0.08 0.04 -0.14 0.12 -0.46 0.12 c-0.04 0 -1 -0.04 -1.4 -0.04 c-0.18 0 -0.34 0.04 -0.5 0.04 c-0.02 0 -0.34 -0.04 -0.38 -0.04 c-1.08 0 -1.76 0.06 -2.18 0.06 c-0.02 0 -0.02 -0.06 -0.34 -0.06 c-0.16 0 -0.2 0 -0.28 0.04 c-0.1 0 -0.18 -0.04 -0.22 -0.1 c-0.04 0 -0.12 0.02 -0.12 0.02 l0.04 0.04 l-0.04 0.04 c-0.66 0 -0.72 0 -0.86 -0.12 l0.04 -0.34 c0 -0.04 0.14 -0.12 0.22 -0.12 l1.5 0 c0.02 0.02 0.16 -0.1 0.16 -0.2 c0 -0.04 -0.32 -0.46 -0.32 -0.7 c0.04 -0.02 0.04 -0.02 0.04 -0.06 c0 -0.1 -0.34 -0.36 -0.34 -0.88 c0.02 0 0.02 0 0.02 -0.02 c0 -0.04 -0.22 -0.2 -0.22 -0.36 c0 -0.72 -0.32 -0.72 -0.32 -1.26 l0 0.02 c-0.04 0 -0.22 -0.5 -0.4 -0.5 c-1.34 0 -2.76 0.04 -4.38 0.04 c0 0.08 -0.16 0.12 -0.16 0.34 c-0.3 0.66 -0.34 0.56 -0.34 0.88 c-0.24 0.16 0.02 0.28 -0.26 0.62 c-0.16 1.1 -0.38 0.48 -0.38 1.22 l0 -0.02 c-0.04 0 -0.22 0.52 -0.24 0.52 c0 0.32 0.08 0.32 0.2 0.4 l1.6 0 c0.1 0 0.3 0.02 0.3 0.26 s-0.06 0.36 -0.42 0.36 c-0.06 0 -0.14 -0.04 -0.24 -0.04 c-0.22 0 -0.3 0.04 -0.4 0.04 c-0.04 0 -0.14 -0.04 -0.16 -0.04 l-1.42 0 c-0.04 0.04 -0.08 0.04 -0.12 0.04 c-0.06 0 -0.16 -0.02 -0.24 -0.08 c0 0 0.04 -0.04 0.04 -0.08 l-0.06 0 c-0.04 0 -0.06 0 -0.06 0.04 l0.02 0.04 c-0.02 0.08 -0.04 0.08 -0.16 0.08 c0 -0.26 0 -0.2 0.06 -0.28 c-0.02 -0.08 0.02 -0.18 -0.04 -0.22 c0 0.14 -0.06 0.24 -0.18 0.32 c0 0.04 0.06 0.08 0.1 0.1 c-0.08 0 -0.3 0.1 -0.34 0.16 c-0.36 0 -0.32 -0.08 -0.54 -0.08 z M27.26 19.92 l0 0.04 l0.1 0 c-0.06 -0.04 -0.08 -0.04 -0.1 -0.04 z M27.6 19.96 c0 -0.02 -0.02 -0.02 -0.04 -0.02 s-0.04 0 -0.04 0.02 s0.02 0.04 0.04 0.04 s0.04 -0.02 0.04 -0.04 z M27.72 19.92 c-0.02 0 -0.04 0.02 -0.04 0.04 s0.02 0.04 0.04 0.04 s0.02 -0.02 0.02 -0.04 s0 -0.04 -0.02 -0.04 z M28.16 19.88 c-0.12 0 -0.28 0.04 -0.32 0.08 c0.34 0 0.24 -0.02 0.32 -0.08 z M28.82 19.9 c0 0.02 0.16 0.04 0.18 0.06 l0.04 -0.04 c-0.1 -0.02 -0.2 -0.02 -0.22 -0.02 z M30.3 19.92 c0.26 0 0.66 0.04 0.76 0.04 c-0.22 0 -0.22 -0.22 -0.24 -0.32 c0.02 0 -0.16 0.04 -0.16 0.16 c-0.04 0 -0.02 -0.12 -0.18 -0.12 c0 0.14 -0.08 0.18 -0.18 0.24 z M31.22 19.92 l0.04 0.04 c0.02 0 0.14 -0.04 0.18 -0.04 l-0.22 0 z M28.46 19.9 c-0.02 0 -0.04 0.02 -0.04 0.04 c0 0 0.02 0.02 0.04 0.02 s0.02 -0.02 0.02 -0.02 c0 -0.02 0 -0.04 -0.02 -0.04 z M30.04 19.92 c0 0 -0.04 -0.02 -0.06 -0.02 c-0.04 0 -0.04 0.02 -0.04 0.02 c0 0.02 0 0.04 0.04 0.04 c0.02 0 0.06 -0.02 0.06 -0.04 z M34.96 19.88 c0.02 0.02 0.08 0.04 0.1 0.04 s0.12 -0.02 0.16 -0.04 l0 -0.24 s-0.04 -0.02 -0.06 -0.02 c-0.18 0 -0.2 0.04 -0.2 0.12 l0 0.14 z M40.38 19.9 c0.06 0 0.08 0.02 0.18 0.02 c0.02 0 0.12 -0.02 0.18 -0.02 l-0.36 0 z M41.34 19.9 l0 0.02 l0.02 -0.02 l-0.02 0 z M35.52 19.88 l-0.04 0.02 l0.06 0.02 z M37.02 19.88 c-0.02 0 -0.04 0.02 -0.04 0.02 s0.02 0.02 0.04 0.02 s0.02 -0.02 0.02 -0.02 s0 -0.02 -0.02 -0.02 z M39.76 19.88 c0.02 0.02 0.04 0.02 0.1 0.02 l0.38 0 c-0.02 -0.02 -0.06 -0.04 -0.1 -0.06 c-0.04 0.04 -0.1 0.04 -0.12 0.04 c-0.18 0 -0.14 -0.14 -0.18 -0.14 z M26.94 19.74 c0 0.12 0 0.1 0.04 0.14 l0.26 0 l0 -0.34 c-0.28 0.14 -0.3 0.08 -0.3 0.2 z M31.16 19.78 l0 0.1 c0.04 0 0.06 -0.04 0.06 -0.04 c-0.02 -0.12 -0.08 -0.12 -0.08 -0.22 c-0.08 0 -0.12 0.04 -0.12 0.06 c0.02 0.04 0.04 0.1 0.14 0.1 z M40.94 19.84 c-0.02 0 -0.02 0.02 -0.02 0.04 s0 0.02 0.02 0.02 s0.02 0 0.02 -0.02 s0 -0.04 -0.02 -0.04 z M27.48 19.62 c0 0.16 -0.02 0.2 -0.06 0.22 c0.12 0 0.22 0 0.22 -0.12 s-0.02 -0.1 -0.16 -0.1 z M29.6 19.8 l0 0.04 l0.04 0 z M29.96 19.72 l0.04 0.02 l0 -0.06 z M31.26 19.58 c0 0.02 0 0.06 0.02 0.06 c0 0 0.08 0 0.08 -0.06 c0 -0.04 -0.04 -0.04 -0.08 -0.06 c-0.02 0.02 -0.02 0.04 -0.02 0.06 z M40.4 19.62 c0 0.02 0.04 0.02 0.06 0.02 c0 -0.1 0 -0.1 -0.04 -0.12 c0 0 -0.02 0.06 -0.02 0.1 z M41.28 19.48 c-0.1 0.02 -0.08 0.06 -0.08 0.16 l0.16 -0.1 c0 -0.02 -0.06 -0.04 -0.08 -0.06 z M39.76 19.54 c-0.02 0 -0.04 0.02 -0.04 0.02 c0 0.02 0.02 0.02 0.04 0.02 s0.02 0 0.02 -0.02 c0 0 0 -0.02 -0.02 -0.02 z M28.78 19.48 l0 0.06 l0.04 -0.06 l-0.04 0 z M28.84 19.18 c0 0.02 0.02 0.3 0.2 0.3 c-0.04 -0.02 -0.1 -0.2 -0.1 -0.3 l0.04 -0.12 l-0.04 -0.04 c-0.08 0 -0.1 0.12 -0.1 0.16 z M29.58 18.24 c-0.06 0.04 -0.14 0.16 -0.14 0.32 c0.02 0.02 0.04 0.02 0.04 0.02 c0.08 0 0.1 -0.12 0.12 -0.18 c0 -0.02 -0.02 -0.18 -0.02 -0.16 z M29.48 17.72 c0 -0.02 -0.02 -0.02 -0.02 -0.02 c-0.02 0 -0.02 0 -0.02 0.02 s0 0.02 0.02 0.02 c0 0 0.02 0 0.02 -0.02 z M30.04 16.28 c-0.02 0 -0.04 0.02 -0.04 0.02 s0.02 0.02 0.04 0.02 l0.02 -0.02 z M35.72 16 c-0.02 0 -0.02 0.02 -0.02 0.04 s0 0.04 0.02 0.04 s0.02 -0.02 0.02 -0.04 s0 -0.04 -0.02 -0.04 z M30.22 15.84 c-0.02 0 -0.02 0.02 -0.02 0.04 s0 0.04 0.02 0.04 s0.02 -0.02 0.02 -0.04 s0 -0.04 -0.02 -0.04 z M30.22 15.42 c-0.02 0 -0.02 0.02 -0.02 0.02 c0 0.02 0 0.02 0.02 0.02 s0.02 0 0.02 -0.02 c0 0 0 -0.02 -0.02 -0.02 z M31.14 14.6 c0.06 0.24 0.08 0.26 0.22 0.34 c0.24 0 0.9 -0.04 2.72 -0.04 c0.16 0 0.24 0.06 0.64 0.06 c0.2 0 0.4 -0.06 0.4 -0.28 c0 -0.1 -0.26 -0.48 -0.26 -0.68 l0.02 0 c0 -0.04 -0.22 -0.22 -0.22 -0.44 c0 -0.74 -0.38 -0.66 -0.38 -1.12 c0.02 0.02 0.02 0.04 0.02 0.04 c-0.02 0 -0.38 -0.66 -0.38 -1.04 c0 -0.26 -0.36 -0.64 -0.36 -1.08 l0.02 0 c0 -0.04 -0.22 -0.24 -0.22 -0.48 c-0.18 -0.42 -0.2 -0.38 -0.36 -0.38 c-0.58 1.38 -0.54 1.4 -0.72 1.74 c0 -0.04 -0.02 0.64 -0.28 0.74 l0 -0.04 c-0.02 0 -0.22 1.14 -0.42 1.32 c0 0.26 -0.44 0.6 -0.44 1.34 z M30.74 14.04 c-0.02 0 -0.04 0.02 -0.04 0.04 s0.02 0.04 0.04 0.04 s0.02 -0.02 0.02 -0.04 s0 -0.04 -0.02 -0.04 z M31.2 12.72 c-0.02 0 -0.04 0.02 -0.04 0.04 c0 0 0.02 0.02 0.04 0.02 l0 -0.06 z M32.04 11.54 l0 0.02 l0.02 0 z M31.96 11.22 c-0.02 0 -0.04 0.02 -0.04 0.04 l0.04 0 l0.02 0 c0 -0.02 0 -0.04 -0.02 -0.04 z M32.04 10.7 c-0.02 0 -0.04 0.02 -0.04 0.02 c0 0.02 0.02 0.04 0.04 0.04 c0 0 0.02 -0.02 0.02 -0.04 z M32.58 9.34 c0 -0.02 -0.02 -0.02 -0.02 -0.02 c-0.02 0 -0.02 0 -0.02 0.02 s0 0.04 0.02 0.04 c0 0 0.02 -0.02 0.02 -0.04 z M32.64 9.28 l-0.02 0 c0 0.02 0.02 0.02 0.02 0.02 s0.02 0 0.02 -0.02 l-0.02 0 z M34.82 7.88 c-0.02 0 -0.02 0.02 -0.02 0.04 s0 0.04 0.02 0.04 s0.02 -0.02 0.02 -0.04 s0 -0.04 -0.02 -0.04 z M34.44 5.1 c0 0 -0.02 0.02 -0.02 0.04 l0.04 0 c0 -0.02 0 -0.04 -0.02 -0.04 z M33.92 5.06 c-0.02 0 -0.02 0.02 -0.02 0.04 s0 0.04 0.02 0.04 s0.02 -0.02 0.02 -0.04 s0 -0.04 -0.02 -0.04 z M34.08 5.06 l0.08 0.04 c0.16 0 0.1 0 0.16 -0.04 l-0.06 -0.08 c-0.08 0 -0.12 0.08 -0.18 0.08 z M42.02 19.68 c0.1 -0.28 0.16 -0.34 0.38 -0.34 c0.66 0 0.8 0.06 1.28 0.06 c0.18 0 0.26 -0.16 0.34 -0.26 l-0.04 -3.08 c0 -0.04 0.04 -0.1 0.04 -0.14 c0 0.02 -0.04 -0.28 -0.04 -0.36 c0 -0.02 -0.02 -0.4 0.04 -0.58 c0 -0.02 -0.04 -0.08 -0.04 -0.12 l0 -1.42 c0.04 -0.04 0.04 -0.1 0.04 -0.14 c0 -0.12 -0.04 -0.18 -0.04 -0.28 c0 0 -0.06 -4.8 -0.06 -6.36 l0.04 -0.08 l0 -0.94 c-0.14 -0.2 -0.6 -0.06 -0.66 -0.16 l-0.12 0.04 l0 0.02 c-0.04 0 -0.16 -0.06 -0.38 -0.06 c-0.04 0 -0.24 0.04 -0.28 0.08 c-0.32 0 -0.54 0.06 -0.54 -0.36 c0 -0.16 0.1 -0.38 0.76 -0.38 c0.08 0 0.26 0.04 0.38 0.04 c0.08 0 1.12 -0.04 1.14 -0.04 c0.14 0 0.38 0.06 0.46 0.06 c0.08 0.02 1.12 -0.08 1.6 -0.08 c0.06 0 0.04 0.18 0.18 0.18 c0 0 0.02 0 0.02 -0.02 s-0.02 -0.06 -0.02 -0.1 c0.22 0 0.44 -0.06 0.76 -0.12 c0.02 0.02 0.1 0.04 0.08 0.06 c0.02 0 0.06 -0.04 0.06 -0.08 c0.02 0 0.12 0.02 0.16 0.06 c0.1 -0.02 0.36 -0.08 0.38 -0.08 c0.78 0 0.82 0.36 0.82 0.56 c0 0.1 -0.14 0.3 -0.24 0.3 c-0.4 0 -1.16 -0.1 -1.34 -0.1 c-0.16 0 -0.24 0.26 -0.26 0.38 l0.02 6.7 c0 0.1 -0.02 0.38 -0.02 0.42 c0 0.02 0.02 -0.02 0.02 0.3 c0 0.7 -0.02 0.98 -0.02 1.36 c0 0.54 0.02 0.48 0.02 0.62 l0 2.32 c0 0.1 -0.06 1.68 0.24 1.74 c0.04 0 0.76 0.02 1.1 -0.02 l0.04 -0.04 l0.36 0 c0.22 0.1 0.26 0.3 0.26 0.38 c0 0.1 -0.16 0.34 -0.22 0.34 c-0.94 0 -2.38 0.06 -2.58 0.06 c0 0 -0.6 -0.04 -0.9 -0.04 c-0.88 0 -2 0.06 -2.64 0.06 c-0.52 0 -0.58 -0.16 -0.58 -0.36 z M42.44 19.92 c0 -0.02 -0.02 -0.02 -0.04 -0.02 s-0.04 0 -0.04 0.02 s0.02 0.04 0.04 0.04 s0.04 -0.02 0.04 -0.04 z M42.56 19.88 c0.08 0 0.12 0.04 0.2 0.04 c0.04 0 0.1 0 0.16 -0.04 c-0.14 0 -0.18 -0.14 -0.24 -0.16 c-0.02 0 -0.12 0 -0.12 0.12 l0 0.04 z M42.96 19.88 c-0.02 0 -0.04 0.02 -0.04 0.04 s0.02 0.04 0.04 0.04 c0 0 0.02 -0.02 0.02 -0.04 s-0.02 -0.04 -0.02 -0.04 z M43.46 19.84 l0.04 0.04 c0.1 0 0.12 0 0.16 -0.04 l-0.04 -0.02 c-0.18 0 -0.12 0 -0.16 0.02 z M47.76 19.68 c-0.12 0.04 -0.1 0.08 -0.1 0.2 c0.1 -0.04 0.08 -0.1 0.12 -0.2 l-0.02 0 z M48.44 19.68 c-0.14 0 -0.14 0.14 -0.16 0.2 l0.24 0 c0 -0.14 -0.04 -0.2 -0.08 -0.2 z M46.94 19.82 l-0.06 0.02 c0 0.02 0 0.02 0.02 0.02 z M47.18 19.84 l-0.04 -0.02 z M48.68 19.64 l0 0.12 c0.06 0.02 0.1 -0.08 0.1 -0.12 l-0.1 0 z M42.32 19.52 c-0.14 0 -0.14 0.14 -0.14 0.2 c0.08 -0.06 0.2 -0.04 0.22 -0.08 c0 -0.02 0.02 -0.12 -0.08 -0.12 z M43.82 19.66 l0.04 0.06 l0 -0.06 l-0.04 0 z M42.64 19.56 l0 0.04 l0.04 -0.04 l-0.04 0 z M48.24 19.52 c0 0.02 -0.02 0.02 -0.02 0.04 s0.02 0.02 0.06 0.04 l0.04 -0.04 l-0.04 -0.08 c-0.02 0 -0.04 0.02 -0.04 0.04 z M48.56 19.56 c0.02 0.04 0.06 0.04 0.1 0.04 c0 -0.02 -0.02 -0.06 -0.02 -0.1 z M44.24 19.3 c-0.02 0.02 -0.02 0.02 -0.02 0.04 s0.06 0.02 0.1 0.02 l0 -0.06 l-0.08 0 z M46.6 6.4 c-0.02 0 -0.04 0 -0.04 0.02 l0.04 0 l0.02 0 c0 -0.02 0 -0.02 -0.02 -0.02 z M47.62 5.32 c-0.02 0 -0.04 0.02 -0.04 0.04 s0.02 0.04 0.04 0.04 s0.02 -0.02 0.02 -0.04 s0 -0.04 -0.02 -0.04 z M42.12 5.14 c-0.02 0 -0.04 0.02 -0.04 0.04 c0 0 0.02 0.02 0.04 0.02 s0.02 -0.02 0.02 -0.02 c0 -0.02 0 -0.04 -0.02 -0.04 z M43.26 5.04 c-0.02 0 -0.04 0.02 -0.04 0.04 c0 0 0.02 0.02 0.04 0.02 l0 -0.06 z M43.54 5.04 c0 0.02 -0.02 0.02 -0.02 0.02 c0 0.02 0.02 0.02 0.06 0.04 l0 -0.06 l-0.04 0 z M42.28 5.02 c-0.08 0 -0.06 0.02 -0.06 0.06 c0.04 0 0.08 0 0.1 -0.04 z"/></g><g id="SvgjsG45128" featureKey="sloganFeature-0" transform="matrix(1,0,0,1,118,126)" fill="#fff"><path d=""/></g>
			</g>
		</svg>
	